<?xml version="1.0" standalone="no"?><!DOCTYPE svg PUBLIC "-//W3C//DTD SVG 1.1//EN" "http://www.w3.org/Graphics/SVG/1.1/DTD/svg11.dtd"><svg t="1619178921039" class="icon" viewBox="0 0 1077 1024" version="1.1" xmlns="http://www.w3.org/2000/svg" p-id="3828" xmlns:xlink="http://www.w3.org/1999/xlink" width="210.3515625" height="200"><defs><style type="text/css"></style></defs><path d="M943.157895 101.052632v808.421052H134.736842v-808.421052h808.421053m0-67.368421H134.736842c-40.421053 0-67.368421 26.947368-67.368421 67.368421v808.421052c0 40.421053 26.947368 67.368421 67.368421 67.368421h808.421053c40.421053 0 67.368421-26.947368 67.368421-67.368421v-808.421052c0-33.684211-33.684211-67.368421-67.368421-67.368421z" p-id="3829"></path><path d="M862.315789 350.315789l-363.789473 377.263158c-20.210526 20.210526-47.157895 20.210526-60.631579 0L215.578947 498.526316c-20.210526-20.210526-20.210526-47.157895 0-67.368421 20.210526-20.210526 47.157895-20.210526 60.631579 0l188.631579 195.368421 336.842106-343.578948c20.210526-20.210526 47.157895-20.210526 60.631578 0 13.473684 20.210526 13.473684 47.157895 0 67.368421z" p-id="3830"></path></svg>